PathFileType	4	(X/Y/Z)	output.trc
DataRate	CameraRate	NumFrames	NumMarkers	Units	OrigDataRate	OrigDataStartFrame	OrigNumFrames
100	100	16	23	m	100	2265	6039
Frame#	Time	C7			T8			EL			EM			US			RS			AA			Fore_Clus_1			Fore_Clus_2			Fore_Clus_3			Fore_Clus_4			Hum_Clus_1			Hum_Clus_2			Hum_Clus_3			Hum_Clus_4			Thor_Clus_1			Thor_Clus_2			Thor_Clus_3			Thor_Clus_4			IJ			PX			GH			Thor_Clus_5		
		X1	Y1	Z1	X2	Y2	Z2	X3	Y3	Z3	X4	Y4	Z4	X5	Y5	Z5	X6	Y6	Z6	X7	Y7	Z7	X8	Y8	Z8	X9	Y9	Z9	X10	Y10	Z10	X11	Y11	Z11	X12	Y12	Z12	X13	Y13	Z13	X14	Y14	Z14	X15	Y15	Z15	X16	Y16	Z16	X17	Y17	Z17	X18	Y18	Z18	X19	Y19	Z19	X20	Y20	Z20	X21	Y21	Z21	X22	Y22	Z22	X23	Y23	Z23
2264	22.640000	-0.032868	1.444664	-0.064476	-0.027858	1.217916	-0.052449	-0.202885	1.092489	0.099990	-0.187868	1.067406	0.039132	-0.238783	0.837392	0.151207	-0.193910	0.838342	0.169229	-0.158572	1.359579	0.063212	-0.247736	0.893921	0.173566	-0.254460	0.841417	0.184879	-0.228071	0.840165	0.195522	-0.206169	0.893490	0.191091	-0.175520	1.194514	0.147296	-0.223280	1.213959	0.115843	-0.214660	1.276817	0.121023	-0.162077	1.267501	0.145630	0.093864	1.337363	0.060787	0.055422	1.291794	0.120634	0.055998	1.336724	0.084353	0.109769	1.292105	0.085944	0.027187	1.365731	0.015615	0.066017	1.160908	0.097131	-0.123379	1.344785	0.064020	0.048065	1.311661	0.109145
2265	22.650000	-0.033094	1.444593	-0.064760	-0.027931	1.217853	-0.052648	-0.202933	1.092432	0.099979	-0.187902	1.067301	0.039144	-0.238538	0.837352	0.151495	-0.193702	0.838419	0.169603	-0.158788	1.359467	0.062911	-0.247662	0.893903	0.173779	-0.254344	0.841424	0.185124	-0.227990	0.840218	0.195820	-0.206080	0.893543	0.191325	-0.175609	1.194506	0.147193	-0.223407	1.213893	0.115707	-0.214832	1.276773	0.120845	-0.162231	1.267520	0.145468	0.093624	1.337393	0.060555	0.055367	1.291810	0.120258	0.055806	1.336771	0.084151	0.109604	1.292210	0.085807	0.026985	1.365731	0.015384	0.065926	1.160965	0.096990	-0.123582	1.344743	0.063770	0.047891	1.311715	0.108944
2266	22.660000	-0.033301	1.444528	-0.065027	-0.027997	1.217795	-0.052845	-0.202981	1.092377	0.099958	-0.187936	1.067204	0.039144	-0.238322	0.837311	0.151748	-0.193521	0.838481	0.169934	-0.158992	1.359359	0.062618	-0.247587	0.893921	0.173994	-0.254052	0.841248	0.185230	-0.227906	0.840258	0.196064	-0.206035	0.893583	0.191532	-0.175732	1.194501	0.147093	-0.223554	1.213821	0.115559	-0.215002	1.276720	0.120658	-0.162370	1.267513	0.145303	0.093426	1.337464	0.060407	0.055136	1.291900	0.120268	0.055598	1.336820	0.083952	0.109427	1.292281	0.085695	0.026796	1.365729	0.015164	0.065837	1.161012	0.096847	-0.123775	1.344703	0.063537	0.047700	1.311763	0.108774
2267	22.670000	-0.033483	1.444478	-0.065268	-0.028053	1.217750	-0.053044	-0.203020	1.092324	0.099925	-0.187963	1.067118	0.039128	-0.238141	0.837267	0.151956	-0.193370	0.838526	0.170212	-0.159179	1.359259	0.062338	-0.247555	0.893893	0.174126	-0.252672	0.840140	0.184703	-0.227829	0.840290	0.196267	-0.206005	0.893617	0.191674	-0.175856	1.194498	0.146984	-0.223676	1.213773	0.115401	-0.215151	1.276665	0.120488	-0.162519	1.267512	0.145134	0.093243	1.337488	0.060234	0.055091	1.291908	0.120002	0.055369	1.336838	0.083769	0.109279	1.292320	0.085529	0.026626	1.365728	0.014962	0.065749	1.161048	0.096698	-0.123955	1.344669	0.063327	0.047490	1.311770	0.108593
2268	22.680000	-0.033638	1.444438	-0.065479	-0.028102	1.217714	-0.053234	-0.203055	1.092275	0.099881	-0.187987	1.067043	0.039097	-0.237998	0.837221	0.152114	-0.193254	0.838551	0.170429	-0.159346	1.359169	0.062082	-0.247507	0.893899	0.174210	-0.252801	0.840277	0.184916	-0.227796	0.840317	0.196420	-0.205996	0.893655	0.191800	-0.175971	1.194490	0.146881	-0.223806	1.213720	0.115264	-0.215303	1.276626	0.120279	-0.162675	1.267527	0.144990	0.093081	1.337503	0.060082	0.054908	1.291921	0.120106	0.055158	1.336838	0.083598	0.109138	1.292349	0.085391	0.026475	1.365725	0.014783	0.065665	1.161071	0.096552	-0.124119	1.344640	0.063143	0.047310	1.311770	0.108423
2269	22.690000	-0.033765	1.444412	-0.065654	-0.028145	1.217690	-0.053411	-0.203086	1.092228	0.099826	-0.188009	1.066980	0.039051	-0.237896	0.837174	0.152214	-0.193173	0.838555	0.170577	-0.159490	1.359090	0.061856	-0.247481	0.893876	0.174249	-0.252737	0.840236	0.184954	-0.227785	0.840342	0.196532	-0.206018	0.893695	0.191859	-0.176064	1.194491	0.146743	-0.223910	1.213701	0.115098	-0.215446	1.276604	0.120092	-0.162810	1.267521	0.144831	0.092967	1.337556	0.059981	0.054752	1.291974	0.119942	0.054999	1.336868	0.083470	0.109011	1.292400	0.085288	0.026348	1.365720	0.014631	0.065585	1.161079	0.096411	-0.124264	1.344614	0.062988	0.047153	1.311764	0.108280
2270	22.700000	-0.033860	1.444401	-0.065785	-0.028181	1.217679	-0.053574	-0.203111	1.092185	0.099758	-0.188026	1.066930	0.038988	-0.237834	0.837122	0.152251	-0.193129	0.838539	0.170653	-0.159609	1.359025	0.061665	-0.247530	0.893822	0.174210	-0.252701	0.840211	0.184961	-0.227768	0.840345	0.196564	-0.206040	0.893707	0.191888	-0.176158	1.194486	0.146667	-0.224011	1.213655	0.115007	-0.215583	1.276572	0.119956	-0.162958	1.267525	0.144722	0.092826	1.337574	0.059874	0.054618	1.291989	0.119827	0.054885	1.336873	0.083372	0.108883	1.292433	0.085193	0.026244	1.365714	0.014510	0.065509	1.161073	0.096275	-0.124387	1.344594	0.062867	0.046987	1.311764	0.108173
2271	22.710000	-0.033929	1.444400	-0.065872	-0.028215	1.217676	-0.053711	-0.203138	1.092145	0.099681	-0.188046	1.066891	0.038913	-0.237813	0.837069	0.152223	-0.193119	0.838503	0.170653	-0.159702	1.358973	0.061519	-0.247533	0.893798	0.174167	-0.252601	0.840061	0.184826	-0.227764	0.840323	0.196529	-0.206062	0.893708	0.191859	-0.176223	1.194479	0.146566	-0.224085	1.213631	0.114900	-0.215676	1.276546	0.119850	-0.163077	1.267523	0.144620	0.092751	1.337591	0.059806	0.054468	1.291992	0.119656	0.054755	1.336888	0.083267	0.108771	1.292455	0.085073	0.026165	1.365705	0.014424	0.065438	1.161051	0.096154	-0.124486	1.344574	0.062779	0.046871	1.311758	0.108068
2272	22.720000	-0.033968	1.444413	-0.065909	-0.028244	1.217685	-0.053825	-0.203162	1.092108	0.099593	-0.188063	1.066866	0.038821	-0.237828	0.837012	0.152128	-0.193142	0.838449	0.170576	-0.159769	1.358935	0.061420	-0.247490	0.893759	0.174068	-0.252631	0.840053	0.184740	-0.227740	0.840287	0.196462	-0.206068	0.893675	0.191799	-0.176297	1.194457	0.146494	-0.224166	1.213599	0.114806	-0.215756	1.276525	0.119766	-0.163168	1.267506	0.144532	0.092650	1.337613	0.059753	0.054352	1.291935	0.119566	0.054658	1.336841	0.083129	0.108648	1.292421	0.084986	0.026109	1.365693	0.014375	0.065374	1.161014	0.096045	-0.124562	1.344559	0.062728	0.046746	1.311743	0.107999
2273	22.730000	-0.033982	1.444434	-0.065896	-0.028271	1.217701	-0.053908	-0.203189	1.092076	0.099497	-0.188084	1.066853	0.038719	-0.237876	0.836952	0.151966	-0.193193	0.838378	0.170423	-0.159811	1.358907	0.061373	-0.247494	0.893721	0.173938	-0.252675	0.840039	0.184599	-0.227709	0.840228	0.196301	-0.206079	0.893642	0.191665	-0.176353	1.194445	0.146411	-0.224216	1.213576	0.114725	-0.215818	1.276505	0.119697	-0.163223	1.267488	0.144467	0.092572	1.337557	0.059718	0.054289	1.291902	0.119549	0.054576	1.336818	0.083123	0.108582	1.292398	0.084961	0.026076	1.365678	0.014366	0.065316	1.160961	0.095955	-0.124611	1.344545	0.062712	0.046671	1.311698	0.107967
2274	22.740000	-0.033973	1.444463	-0.065831	-0.028296	1.217723	-0.053957	-0.203222	1.092047	0.099394	-0.188110	1.066852	0.038606	-0.237952	0.836890	0.151738	-0.193270	0.838294	0.170198	-0.159829	1.358891	0.061381	-0.247526	0.893666	0.173749	-0.252667	0.839980	0.184444	-0.227704	0.840155	0.196084	-0.206090	0.893579	0.191507	-0.176406	1.194403	0.146340	-0.224261	1.213553	0.114664	-0.215870	1.276471	0.119663	-0.163272	1.267443	0.144436	0.092540	1.337500	0.059738	0.054215	1.291817	0.119440	0.054565	1.336742	0.083167	0.108566	1.292340	0.084964	0.026065	1.365657	0.014398	0.065266	1.160894	0.095888	-0.124635	1.344532	0.062733	0.046634	1.311634	0.107978
2275	22.750000	-0.033943	1.444501	-0.065713	-0.028319	1.217753	-0.053973	-0.203258	1.092024	0.099283	-0.188137	1.066864	0.038483	-0.238052	0.836825	0.151447	-0.193368	0.838200	0.169904	-0.159825	1.358882	0.061442	-0.247562	0.893599	0.173514	-0.252689	0.839926	0.184226	-0.227674	0.840018	0.195793	-0.206118	0.893500	0.191269	-0.176446	1.194353	0.146278	-0.224297	1.213533	0.114617	-0.215892	1.276443	0.119656	-0.163299	1.267394	0.144425	0.092574	1.337444	0.059847	0.054200	1.291715	0.119451	0.054571	1.336669	0.083235	0.108551	1.292224	0.085002	0.026073	1.365634	0.014472	0.065222	1.160813	0.095842	-0.124636	1.344523	0.062789	0.046635	1.311543	0.108035
2276	22.760000	-0.033895	1.444541	-0.065547	-0.028343	1.217783	-0.053951	-0.203305	1.092007	0.099171	-0.188175	1.066887	0.038356	-0.238172	0.836760	0.151099	-0.193484	0.838097	0.169548	-0.159800	1.358880	0.061558	-0.247641	0.893499	0.173217	-0.252716	0.839837	0.183937	-0.227754	0.839938	0.195491	-0.206188	0.893378	0.190976	-0.176499	1.194286	0.146261	-0.224325	1.213503	0.114585	-0.215900	1.276412	0.119663	-0.163317	1.267330	0.144448	0.092541	1.337287	0.059931	0.054192	1.291584	0.119535	0.054573	1.336584	0.083383	0.108576	1.292113	0.085048	0.026098	1.365604	0.014586	0.065186	1.160719	0.095825	-0.124613	1.344512	0.062879	0.046634	1.311438	0.108116
2277	22.770000	-0.033831	1.444586	-0.065332	-0.028363	1.217819	-0.053897	-0.203357	1.091996	0.099054	-0.188216	1.066922	0.038223	-0.238307	0.836694	0.150698	-0.193613	0.837989	0.169137	-0.159758	1.358884	0.061722	-0.247720	0.893405	0.172864	-0.253342	0.840182	0.183906	-0.227791	0.839769	0.195088	-0.206281	0.893231	0.190556	-0.176514	1.194219	0.146222	-0.224318	1.213483	0.114576	-0.215875	1.276386	0.119713	-0.163302	1.267262	0.144507	0.092616	1.337220	0.060060	0.054234	1.291423	0.119646	0.054611	1.336465	0.083506	0.108605	1.291976	0.085129	0.026139	1.365570	0.014740	0.065156	1.160614	0.095832	-0.124570	1.344506	0.063001	0.046674	1.311338	0.108216
2278	22.780000	-0.033752	1.444634	-0.065074	-0.028381	1.217855	-0.053808	-0.203420	1.091991	0.098938	-0.188265	1.066968	0.038090	-0.238455	0.836631	0.150252	-0.193755	0.837880	0.168679	-0.159700	1.358892	0.061932	-0.247840	0.893310	0.172510	-0.254461	0.840850	0.183839	-0.228424	0.840022	0.194845	-0.206429	0.893088	0.190195	-0.176533	1.194154	0.146233	-0.224320	1.213457	0.114590	-0.215854	1.276357	0.119791	-0.163273	1.267189	0.144593	0.092644	1.337093	0.060207	0.054269	1.291314	0.119820	0.054669	1.336323	0.083672	0.108670	1.291815	0.085268	0.026194	1.365532	0.014932	0.065132	1.160498	0.095866	-0.124508	1.344500	0.063154	0.046698	1.311243	0.108303
2279	22.790000	-0.033659	1.444682	-0.064777	-0.028396	1.217892	-0.053689	-0.203492	1.091992	0.098824	-0.188320	1.067023	0.037958	-0.238614	0.836570	0.149769	-0.193907	0.837770	0.168183	-0.159629	1.358902	0.062181	-0.247978	0.893221	0.172116	-0.254416	0.840520	0.183095	-0.229063	0.840243	0.194625	-0.206573	0.892945	0.189747	-0.176544	1.194082	0.146243	-0.224289	1.213448	0.114608	-0.215807	1.276340	0.119888	-0.163231	1.267117	0.144676	0.092735	1.336992	0.060415	0.054328	1.291135	0.119938	0.054756	1.336192	0.083853	0.108714	1.291643	0.085434	0.026261	1.365489	0.015158	0.065112	1.160374	0.095926	-0.124430	1.344496	0.063335	0.046834	1.311089	0.108521
